# xmcd
# 
# Track frame offsets:
#     150
#     96208
#     147000
#     191078
#     207050
# 
# Disc length: 3382
# 
# Revision: 12
# Processed by: cddbd v1.5.2PL0 Copyright (c) Steve Scherf et al.
# Submitted via: fre:ac v1.1.4
# 
DISCID=400d3405
DTITLE=Franz Schubert / CD1 (1797-1828) Symphony N°4 Tragic
DYEAR=1990
DGENRE=Classical
TTITLE0=Wanderer Fantasy in C Major, Op.15 D.760 - Allegro Con fuoco ma non troppo - Adagio - Presto - Allegro
TTITLE1=Symphony N° 4 in C minor, D 417 “Tragic” – I. Adagio – Allegro vivace
TTITLE2=Symphony N° 4 in C minor, D 417 “Tragic” – II. Andante
TTITLE3=Symphony N° 4 in C minor, D 417 “Tragic” – III. Allegro
TTITLE4=Symphony N° 4 in C minor, D 417 “Tragic” – IV. Allegro vivace
EXTD=
EXTT0=Prof. Hugo Steurer, Piano
EXTT1=Philharmonic Orchestra Bamberg, Conductor: Alfred Scholz
EXTT2=Philharmonic Orchestra Bamberg, Conductor: Alfred Scholz
EXTT3=Philharmonic Orchestra Bamberg, Conductor: Alfred Scholz
EXTT4=Philharmonic Orchestra Bamberg, Conductor: Alfred Scholz
PLAYORDER=
.
